# Tiled2Unity generated file. Do not modify by hand.
# Wavefront file for 'Level_2_mesh_0006.obj'

# Vertices (Count = 12)
v -1 -23 0
v -2 -23 0
v -2 -22 0
v -1 -22 0
v -4 -23 0
v -5 -23 0
v -5 -22 0
v -4 -22 0
v -6 -23 0
v -7 -23 0
v -7 -22 0
v -6 -22 0

# Texture cooridinates (Count = 8)
vt 0.8235294 0.25
vt 0.8823529 0.25
vt 0.8823529 0.375
vt 0.8235294 0.375
vt 0.8823529 0.125
vt 0.9411765 0.125
vt 0.9411765 0.25
vt 0.9411765 0.375

# Normal
vn 0 0 -1

# Mesh description
g Level_2_mesh_0006

# Faces
f 1/1/1 2/2/1 3/3/1 4/4/1
f 5/5/1 6/6/1 7/7/1 8/2/1
f 9/2/1 10/7/1 11/8/1 12/3/1

