# Tiled2Unity generated file. Do not modify by hand.
# Wavefront file for 'Level_2_mesh_0007.obj'

# Vertices (Count = 384)
v -47 -20 0
v -48 -20 0
v -48 -19 0
v -47 -19 0
v -47 -21 0
v -48 -21 0
v -48 -20 0
v -47 -20 0
v -47 -22 0
v -48 -22 0
v -48 -21 0
v -47 -21 0
v 0 -23 0
v -1 -23 0
v -1 -22 0
v 0 -22 0
v -1 -23 0
v -2 -23 0
v -2 -22 0
v -1 -22 0
v -2 -23 0
v -3 -23 0
v -3 -22 0
v -2 -22 0
v -3 -23 0
v -4 -23 0
v -4 -22 0
v -3 -22 0
v -4 -23 0
v -5 -23 0
v -5 -22 0
v -4 -22 0
v -5 -23 0
v -6 -23 0
v -6 -22 0
v -5 -22 0
v -6 -23 0
v -7 -23 0
v -7 -22 0
v -6 -22 0
v -47 -23 0
v -48 -23 0
v -48 -22 0
v -47 -22 0
v -47 -24 0
v -48 -24 0
v -48 -23 0
v -47 -23 0
v -47 -25 0
v -48 -25 0
v -48 -24 0
v -47 -24 0
v -10 -26 0
v -11 -26 0
v -11 -25 0
v -10 -25 0
v -47 -26 0
v -48 -26 0
v -48 -25 0
v -47 -25 0
v -47 -27 0
v -48 -27 0
v -48 -26 0
v -47 -26 0
v -47 -28 0
v -48 -28 0
v -48 -27 0
v -47 -27 0
v -16 -29 0
v -17 -29 0
v -17 -28 0
v -16 -28 0
v -18 -29 0
v -19 -29 0
v -19 -28 0
v -18 -28 0
v -47 -29 0
v -48 -29 0
v -48 -28 0
v -47 -28 0
v -47 -30 0
v -48 -30 0
v -48 -29 0
v -47 -29 0
v -24 -31 0
v -25 -31 0
v -25 -30 0
v -24 -30 0
v -25 -31 0
v -26 -31 0
v -26 -30 0
v -25 -30 0
v -26 -31 0
v -27 -31 0
v -27 -30 0
v -26 -30 0
v -47 -31 0
v -48 -31 0
v -48 -30 0
v -47 -30 0
v -31 -32 0
v -32 -32 0
v -32 -31 0
v -31 -31 0
v -47 -32 0
v -48 -32 0
v -48 -31 0
v -47 -31 0
v -47 -33 0
v -48 -33 0
v -48 -32 0
v -47 -32 0
v -47 -34 0
v -48 -34 0
v -48 -33 0
v -47 -33 0
v -47 -35 0
v -48 -35 0
v -48 -34 0
v -47 -34 0
v -47 -36 0
v -48 -36 0
v -48 -35 0
v -47 -35 0
v -47 -37 0
v -48 -37 0
v -48 -36 0
v -47 -36 0
v -47 -38 0
v -48 -38 0
v -48 -37 0
v -47 -37 0
v -47 -39 0
v -48 -39 0
v -48 -38 0
v -47 -38 0
v -47 -40 0
v -48 -40 0
v -48 -39 0
v -47 -39 0
v -8 -41 0
v -9 -41 0
v -9 -40 0
v -8 -40 0
v -9 -41 0
v -10 -41 0
v -10 -40 0
v -9 -40 0
v -47 -41 0
v -48 -41 0
v -48 -40 0
v -47 -40 0
v -8 -42 0
v -9 -42 0
v -9 -41 0
v -8 -41 0
v -9 -42 0
v -10 -42 0
v -10 -41 0
v -9 -41 0
v -47 -42 0
v -48 -42 0
v -48 -41 0
v -47 -41 0
v -47 -43 0
v -48 -43 0
v -48 -42 0
v -47 -42 0
v -8 -44 0
v -9 -44 0
v -9 -43 0
v -8 -43 0
v -19 -44 0
v -20 -44 0
v -20 -43 0
v -19 -43 0
v -47 -44 0
v -48 -44 0
v -48 -43 0
v -47 -43 0
v -8 -45 0
v -9 -45 0
v -9 -44 0
v -8 -44 0
v -47 -45 0
v -48 -45 0
v -48 -44 0
v -47 -44 0
v -47 -46 0
v -48 -46 0
v -48 -45 0
v -47 -45 0
v -1 -47 0
v -2 -47 0
v -2 -46 0
v -1 -46 0
v -2 -47 0
v -3 -47 0
v -3 -46 0
v -2 -46 0
v -3 -47 0
v -4 -47 0
v -4 -46 0
v -3 -46 0
v -4 -47 0
v -5 -47 0
v -5 -46 0
v -4 -46 0
v -5 -47 0
v -6 -47 0
v -6 -46 0
v -5 -46 0
v -6 -47 0
v -7 -47 0
v -7 -46 0
v -6 -46 0
v -8 -47 0
v -9 -47 0
v -9 -46 0
v -8 -46 0
v -9 -47 0
v -10 -47 0
v -10 -46 0
v -9 -46 0
v -10 -47 0
v -11 -47 0
v -11 -46 0
v -10 -46 0
v -12 -47 0
v -13 -47 0
v -13 -46 0
v -12 -46 0
v -13 -47 0
v -14 -47 0
v -14 -46 0
v -13 -46 0
v -47 -47 0
v -48 -47 0
v -48 -46 0
v -47 -46 0
v -47 -48 0
v -48 -48 0
v -48 -47 0
v -47 -47 0
v -47 -49 0
v -48 -49 0
v -48 -48 0
v -47 -48 0
v -14 -50 0
v -15 -50 0
v -15 -49 0
v -14 -49 0
v -15 -50 0
v -16 -50 0
v -16 -49 0
v -15 -49 0
v -16 -50 0
v -17 -50 0
v -17 -49 0
v -16 -49 0
v -17 -50 0
v -18 -50 0
v -18 -49 0
v -17 -49 0
v -18 -50 0
v -19 -50 0
v -19 -49 0
v -18 -49 0
v -19 -50 0
v -20 -50 0
v -20 -49 0
v -19 -49 0
v -20 -50 0
v -21 -50 0
v -21 -49 0
v -20 -49 0
v -21 -50 0
v -22 -50 0
v -22 -49 0
v -21 -49 0
v -22 -50 0
v -23 -50 0
v -23 -49 0
v -22 -49 0
v -23 -50 0
v -24 -50 0
v -24 -49 0
v -23 -49 0
v -24 -50 0
v -25 -50 0
v -25 -49 0
v -24 -49 0
v -25 -50 0
v -26 -50 0
v -26 -49 0
v -25 -49 0
v -26 -50 0
v -27 -50 0
v -27 -49 0
v -26 -49 0
v -27 -50 0
v -28 -50 0
v -28 -49 0
v -27 -49 0
v -28 -50 0
v -29 -50 0
v -29 -49 0
v -28 -49 0
v -29 -50 0
v -30 -50 0
v -30 -49 0
v -29 -49 0
v -30 -50 0
v -31 -50 0
v -31 -49 0
v -30 -49 0
v -31 -50 0
v -32 -50 0
v -32 -49 0
v -31 -49 0
v -32 -50 0
v -33 -50 0
v -33 -49 0
v -32 -49 0
v -33 -50 0
v -34 -50 0
v -34 -49 0
v -33 -49 0
v -34 -50 0
v -35 -50 0
v -35 -49 0
v -34 -49 0
v -35 -50 0
v -36 -50 0
v -36 -49 0
v -35 -49 0
v -36 -50 0
v -37 -50 0
v -37 -49 0
v -36 -49 0
v -37 -50 0
v -38 -50 0
v -38 -49 0
v -37 -49 0
v -38 -50 0
v -39 -50 0
v -39 -49 0
v -38 -49 0
v -39 -50 0
v -40 -50 0
v -40 -49 0
v -39 -49 0
v -40 -50 0
v -41 -50 0
v -41 -49 0
v -40 -49 0
v -41 -50 0
v -42 -50 0
v -42 -49 0
v -41 -49 0
v -42 -50 0
v -43 -50 0
v -43 -49 0
v -42 -49 0
v -43 -50 0
v -44 -50 0
v -44 -49 0
v -43 -49 0
v -44 -50 0
v -45 -50 0
v -45 -49 0
v -44 -49 0
v -45 -50 0
v -46 -50 0
v -46 -49 0
v -45 -49 0
v -46 -50 0
v -47 -50 0
v -47 -49 0
v -46 -49 0
v -47 -50 0
v -48 -50 0
v -48 -49 0
v -47 -49 0

# Texture cooridinates (Count = 38)
vt 0.4705882 0.75
vt 0.5294118 0.75
vt 0.5294118 0.875
vt 0.4705882 0.875
vt 0.5882353 0.75
vt 0.6470588 0.75
vt 0.6470588 0.875
vt 0.5882353 0.875
vt 0.6470588 0.5
vt 0.7058824 0.5
vt 0.7058824 0.625
vt 0.6470588 0.625
vt 0.8235294 0.875
vt 0.8823529 0.875
vt 0.8823529 1
vt 0.8235294 1
vt 0 0.875
vt 0.05882353 0.875
vt 0.05882353 1
vt 0 1
vt 0.1176471 0.875
vt 0.1176471 1
vt 0 0.75
vt 0.05882353 0.75
vt 0.1176471 0.75
vt 0.8823529 0.25
vt 0.9411765 0.25
vt 0.9411765 0.375
vt 0.8823529 0.375
vt 0.8235294 0.25
vt 0.8235294 0.375
vt 0.8235294 0.125
vt 0.8823529 0.125
vt 0.9411765 0.125
vt 0.9411765 0
vt 1 0
vt 1 0.125
vt 0.8823529 0

# Normal
vn 0 0 -1

# Mesh description
g Level_2_mesh_0007

# Faces
f 1/1/1 2/2/1 3/3/1 4/4/1
f 5/5/1 6/6/1 7/7/1 8/8/1
f 9/5/1 10/6/1 11/7/1 12/8/1
f 13/9/1 14/10/1 15/11/1 16/12/1
f 17/9/1 18/10/1 19/11/1 20/12/1
f 21/9/1 22/10/1 23/11/1 24/12/1
f 25/9/1 26/10/1 27/11/1 28/12/1
f 29/9/1 30/10/1 31/11/1 32/12/1
f 33/13/1 34/14/1 35/15/1 36/16/1
f 37/9/1 38/10/1 39/11/1 40/12/1
f 41/5/1 42/6/1 43/7/1 44/8/1
f 45/5/1 46/6/1 47/7/1 48/8/1
f 49/5/1 50/6/1 51/7/1 52/8/1
f 53/9/1 54/10/1 55/11/1 56/12/1
f 57/5/1 58/6/1 59/7/1 60/8/1
f 61/5/1 62/6/1 63/7/1 64/8/1
f 65/5/1 66/6/1 67/7/1 68/8/1
f 69/9/1 70/10/1 71/11/1 72/12/1
f 73/9/1 74/10/1 75/11/1 76/12/1
f 77/5/1 78/6/1 79/7/1 80/8/1
f 81/5/1 82/6/1 83/7/1 84/8/1
f 85/9/1 86/10/1 87/11/1 88/12/1
f 89/9/1 90/10/1 91/11/1 92/12/1
f 93/9/1 94/10/1 95/11/1 96/12/1
f 97/5/1 98/6/1 99/7/1 100/8/1
f 101/9/1 102/10/1 103/11/1 104/12/1
f 105/5/1 106/6/1 107/7/1 108/8/1
f 109/5/1 110/6/1 111/7/1 112/8/1
f 113/5/1 114/6/1 115/7/1 116/8/1
f 117/5/1 118/6/1 119/7/1 120/8/1
f 121/5/1 122/6/1 123/7/1 124/8/1
f 125/5/1 126/6/1 127/7/1 128/8/1
f 129/5/1 130/6/1 131/7/1 132/8/1
f 133/5/1 134/6/1 135/7/1 136/8/1
f 137/5/1 138/6/1 139/7/1 140/8/1
f 141/17/1 142/18/1 143/19/1 144/20/1
f 145/18/1 146/21/1 147/22/1 148/19/1
f 149/5/1 150/6/1 151/7/1 152/8/1
f 153/23/1 154/24/1 155/18/1 156/17/1
f 157/24/1 158/25/1 159/21/1 160/18/1
f 161/5/1 162/6/1 163/7/1 164/8/1
f 165/5/1 166/6/1 167/7/1 168/8/1
f 169/18/1 170/21/1 171/22/1 172/19/1
f 173/9/1 174/10/1 175/11/1 176/12/1
f 177/5/1 178/6/1 179/7/1 180/8/1
f 181/24/1 182/25/1 183/21/1 184/18/1
f 185/5/1 186/6/1 187/7/1 188/8/1
f 189/5/1 190/6/1 191/7/1 192/8/1
f 193/9/1 194/10/1 195/11/1 196/12/1
f 197/9/1 198/10/1 199/11/1 200/12/1
f 201/26/1 202/27/1 203/28/1 204/29/1
f 205/9/1 206/10/1 207/11/1 208/12/1
f 209/9/1 210/10/1 211/11/1 212/12/1
f 213/30/1 214/26/1 215/29/1 216/31/1
f 217/9/1 218/10/1 219/11/1 220/12/1
f 221/32/1 222/33/1 223/26/1 224/30/1
f 225/9/1 226/10/1 227/11/1 228/12/1
f 229/33/1 230/34/1 231/27/1 232/26/1
f 233/9/1 234/10/1 235/11/1 236/12/1
f 237/5/1 238/6/1 239/7/1 240/8/1
f 241/5/1 242/6/1 243/7/1 244/8/1
f 245/5/1 246/6/1 247/7/1 248/8/1
f 249/35/1 250/36/1 251/37/1 252/34/1
f 253/35/1 254/36/1 255/37/1 256/34/1
f 257/35/1 258/36/1 259/37/1 260/34/1
f 261/38/1 262/35/1 263/34/1 264/33/1
f 265/35/1 266/36/1 267/37/1 268/34/1
f 269/35/1 270/36/1 271/37/1 272/34/1
f 273/38/1 274/35/1 275/34/1 276/33/1
f 277/35/1 278/36/1 279/37/1 280/34/1
f 281/35/1 282/36/1 283/37/1 284/34/1
f 285/35/1 286/36/1 287/37/1 288/34/1
f 289/38/1 290/35/1 291/34/1 292/33/1
f 293/35/1 294/36/1 295/37/1 296/34/1
f 297/35/1 298/36/1 299/37/1 300/34/1
f 301/38/1 302/35/1 303/34/1 304/33/1
f 305/35/1 306/36/1 307/37/1 308/34/1
f 309/35/1 310/36/1 311/37/1 312/34/1
f 313/35/1 314/36/1 315/37/1 316/34/1
f 317/35/1 318/36/1 319/37/1 320/34/1
f 321/35/1 322/36/1 323/37/1 324/34/1
f 325/38/1 326/35/1 327/34/1 328/33/1
f 329/35/1 330/36/1 331/37/1 332/34/1
f 333/35/1 334/36/1 335/37/1 336/34/1
f 337/38/1 338/35/1 339/34/1 340/33/1
f 341/35/1 342/36/1 343/37/1 344/34/1
f 345/35/1 346/36/1 347/37/1 348/34/1
f 349/38/1 350/35/1 351/34/1 352/33/1
f 353/35/1 354/36/1 355/37/1 356/34/1
f 357/35/1 358/36/1 359/37/1 360/34/1
f 361/35/1 362/36/1 363/37/1 364/34/1
f 365/35/1 366/36/1 367/37/1 368/34/1
f 369/35/1 370/36/1 371/37/1 372/34/1
f 373/38/1 374/35/1 375/34/1 376/33/1
f 377/35/1 378/36/1 379/37/1 380/34/1
f 381/5/1 382/6/1 383/7/1 384/8/1

