# Tiled2Unity generated file. Do not modify by hand.
# Wavefront file for 'Testmap_mesh_0004.obj'

# Vertices (Count = 40)
v -62 -39 0
v -63 -39 0
v -63 -38 0
v -62 -38 0
v -65 -39 0
v -66 -39 0
v -66 -38 0
v -65 -38 0
v -66 -39 0
v -67 -39 0
v -67 -38 0
v -66 -38 0
v -69 -39 0
v -70 -39 0
v -70 -38 0
v -69 -38 0
v -38 -46 0
v -39 -46 0
v -39 -45 0
v -38 -45 0
v -36 -47 0
v -37 -47 0
v -37 -46 0
v -36 -46 0
v -37 -48 0
v -38 -48 0
v -38 -47 0
v -37 -47 0
v -38 -48 0
v -39 -48 0
v -39 -47 0
v -38 -47 0
v -30 -49 0
v -31 -49 0
v -31 -48 0
v -30 -48 0
v -36 -49 0
v -37 -49 0
v -37 -48 0
v -36 -48 0

# Texture cooridinates (Count = 16)
vt 0.8235294 0.125
vt 0.8823529 0.125
vt 0.8823529 0.25
vt 0.8235294 0.25
vt 0.9411765 0.25
vt 0.9411765 0.375
vt 0.8823529 0.375
vt 0.8235294 0.375
vt 0.4117647 0.5
vt 0.4705882 0.5
vt 0.4705882 0.625
vt 0.4117647 0.625
vt 0.4117647 0.75
vt 0.4705882 0.75
vt 0.4705882 0.875
vt 0.4117647 0.875

# Normal
vn 0 0 -1

# Mesh description
g Testmap_mesh_0004

# Faces
f 1/1/1 2/2/1 3/3/1 4/4/1
f 5/3/1 6/5/1 7/6/1 8/7/1
f 9/1/1 10/2/1 11/3/1 12/4/1
f 13/4/1 14/3/1 15/7/1 16/8/1
f 17/9/1 18/10/1 19/11/1 20/12/1
f 21/13/1 22/14/1 23/15/1 24/16/1
f 25/9/1 26/10/1 27/11/1 28/12/1
f 29/13/1 30/14/1 31/15/1 32/16/1
f 33/9/1 34/10/1 35/11/1 36/12/1
f 37/13/1 38/14/1 39/15/1 40/16/1

