# Tiled2Unity generated file. Do not modify by hand.
# Wavefront file for 'tutorial_mesh_0001.obj'

# Vertices (Count = 60)
v 0 -75 0
v -1 -75 0
v -1 -74 0
v 0 -74 0
v -1 -75 0
v -2 -75 0
v -2 -74 0
v -1 -74 0
v -2 -75 0
v -3 -75 0
v -3 -74 0
v -2 -74 0
v -7 -75 0
v -8 -75 0
v -8 -74 0
v -7 -74 0
v -8 -75 0
v -9 -75 0
v -9 -74 0
v -8 -74 0
v -9 -75 0
v -10 -75 0
v -10 -74 0
v -9 -74 0
v -10 -75 0
v -11 -75 0
v -11 -74 0
v -10 -74 0
v -11 -75 0
v -12 -75 0
v -12 -74 0
v -11 -74 0
v -12 -75 0
v -13 -75 0
v -13 -74 0
v -12 -74 0
v -13 -75 0
v -14 -75 0
v -14 -74 0
v -13 -74 0
v -14 -75 0
v -15 -75 0
v -15 -74 0
v -14 -74 0
v -3 -76 0
v -4 -76 0
v -4 -75 0
v -3 -75 0
v -4 -76 0
v -5 -76 0
v -5 -75 0
v -4 -75 0
v -5 -76 0
v -6 -76 0
v -6 -75 0
v -5 -75 0
v -6 -76 0
v -7 -76 0
v -7 -75 0
v -6 -75 0

# Texture cooridinates (Count = 4)
vt 0.4705882 0.875
vt 0.5294118 0.875
vt 0.5294118 1
vt 0.4705882 1

# Normal
vn 0 0 -1

# Mesh description
g tutorial_mesh_0001

# Faces
f 1/1/1 2/2/1 3/3/1 4/4/1
f 5/1/1 6/2/1 7/3/1 8/4/1
f 9/1/1 10/2/1 11/3/1 12/4/1
f 13/1/1 14/2/1 15/3/1 16/4/1
f 17/1/1 18/2/1 19/3/1 20/4/1
f 21/1/1 22/2/1 23/3/1 24/4/1
f 25/1/1 26/2/1 27/3/1 28/4/1
f 29/1/1 30/2/1 31/3/1 32/4/1
f 33/1/1 34/2/1 35/3/1 36/4/1
f 37/1/1 38/2/1 39/3/1 40/4/1
f 41/1/1 42/2/1 43/3/1 44/4/1
f 45/1/1 46/2/1 47/3/1 48/4/1
f 49/1/1 50/2/1 51/3/1 52/4/1
f 53/1/1 54/2/1 55/3/1 56/4/1
f 57/1/1 58/2/1 59/3/1 60/4/1

